# xmcd CD database file
#
# Track frame offsets:
#	150
#	19846
#	35509
#	51245
#	64463
#	82351
#	95946
#	110216
#	127154
#	143876
#	158974
#	173850
#	188649
#	203713
#	219609
#	238365
#	255564
#	271119
#	285671
#	304218
#	319421
#	336780
#
# Disc length: 4715 seconds
#
# Revision: 0
# Processed by: cddbd v1.5.2PL0 Copyright (c) Steve Scherf et al.
# Submitted via: CDex 1.70beta2
#
DISCID=67126916
DTITLE=Paradão Sertanejo - Volume 3
DYEAR=2008
DGENRE=Sertanejo
TTITLE0=Daniel - Difícil Não Falar de Amor
TTITLE1=João Bosco e Vinícius - Chora Peito, Chora
TTITLE2=Nechivile - Não Vou Tirar Você do Coração
TTITLE3=Jorge e Matheus - Pirraça
TTITLE4=Rick e Renner - Negativo e Positivo
TTITLE5=Alexandre Pires - Dessa Vez eu me Rendo
TTITLE6=João Neto e Frederico - Difícil
TTITLE7=Daniel - Amiga
TTITLE8=Leonardo - A Fila Anda
TTITLE9=Alexandre Pires - Estrela Cadente
TTITLE10=Nechivile - Verdadeiro Amor
TTITLE11=João Neto e Frederico - Enquanto o Sol Brilhar
TTITLE12=Victor e Léo - Tanta Solidão
TTITLE13=Banda Calypso - Doce Mel
TTITLE14=Ruan e Ricardo - A Flor do Meu Jardim
TTITLE15=Alexandre Pires - Cheguei Tarde Demais
TTITLE16=Chico Amado e Xodó - Tem Alguém no Seu Lugar
TTITLE17=Rionegro e Solimões - Moído de Paixão
TTITLE18=Ronaldo Adriano e Rick and Renner - Luz da Minha Vida
TTITLE19=Gino e Geno - Pôr Pra Dentro
TTITLE20=Daniel - Tô Dentro
TTITLE21=Calcinha Preta - Mesmo Erro
EXTD=YEAR: 2008
EXTT0=
EXTT1=
EXTT2=
EXTT3=
EXTT4=
EXTT5=
EXTT6=
EXTT7=
EXTT8=
EXTT9=
EXTT10=
EXTT11=
EXTT12=
EXTT13=
EXTT14=
EXTT15=
EXTT16=
EXTT17=
EXTT18=
EXTT19=
EXTT20=
EXTT21=
PLAYORDER=
